<svg xmlns="http://www.w3.org/2000/svg" viewBox="0 0 1024 1024" role="img" aria-label="Secret Base app icon">
  <defs>
    <linearGradient id="bg" x1="180" y1="90" x2="844" y2="934" gradientUnits="userSpaceOnUse">
      <stop offset="0" stop-color="#FFF8F3"/>
      <stop offset="0.55" stop-color="#FDEFEA"/>
      <stop offset="1" stop-color="#F5F7F1"/>
    </linearGradient>
    <linearGradient id="pinMain" x1="306" y1="222" x2="688" y2="800" gradientUnits="userSpaceOnUse">
      <stop offset="0" stop-color="#FF8D8C"/>
      <stop offset="1" stop-color="#D94B72"/>
    </linearGradient>
    <linearGradient id="pinSide" x1="603" y1="288" x2="775" y2="620" gradientUnits="userSpaceOnUse">
      <stop offset="0" stop-color="#B99BF5"/>
      <stop offset="1" stop-color="#7558D5"/>
    </linearGradient>
    <filter id="softShadow" x="-20%" y="-20%" width="140%" height="150%">
      <feDropShadow dx="0" dy="28" stdDeviation="30" flood-color="#7C4D5C" flood-opacity="0.22"/>
    </filter>
    <filter id="smallShadow" x="-30%" y="-30%" width="160%" height="160%">
      <feDropShadow dx="0" dy="16" stdDeviation="18" flood-color="#4E3C6B" flood-opacity="0.20"/>
    </filter>
    <clipPath id="squircle">
      <path d="M512 36c143 0 220 0 286 35 58 31 124 97 155 155 35 66 35 143 35 286s0 220-35 286c-31 58-97 124-155 155-66 35-143 35-286 35s-220 0-286-35c-58-31-124-97-155-155-35-66-35-143-35-286s0-220 35-286c31-58 97-124 155-155 66-35 143-35 286-35z"/>
    </clipPath>
  </defs>

  <g clip-path="url(#squircle)">
    <rect width="1024" height="1024" fill="url(#bg)"/>

    <path d="M196 673c118-80 245-114 376-100 111 12 200 50 270 111" fill="none" stroke="#D9E1D0" stroke-width="34" stroke-linecap="round" opacity="0.9"/>
    <path d="M159 516c107-49 220-68 340-56 135 14 251 58 348 133" fill="none" stroke="#F3C9B5" stroke-width="28" stroke-linecap="round" opacity="0.78"/>
    <path d="M237 359c75 20 142 29 203 27 104-3 193-37 270-103" fill="none" stroke="#E8D9F6" stroke-width="28" stroke-linecap="round" opacity="0.86"/>

    <g filter="url(#smallShadow)" opacity="0.98">
      <path d="M662 252c-87 0-158 70-158 157 0 120 158 284 158 284s158-164 158-284c0-87-71-157-158-157z" fill="url(#pinSide)"/>
      <circle cx="662" cy="410" r="58" fill="#FFF8F3" opacity="0.94"/>
      <circle cx="662" cy="410" r="25" fill="#8F72E6" opacity="0.95"/>
    </g>

    <g filter="url(#softShadow)">
      <path d="M464 198c-126 0-228 101-228 226 0 174 228 401 228 401s228-227 228-401c0-125-102-226-228-226z" fill="url(#pinMain)"/>
      <circle cx="464" cy="428" r="92" fill="#FFF8F3" opacity="0.96"/>
      <path d="M464 386c-22-30-73-19-73 26 0 47 73 86 73 86s73-39 73-86c0-45-51-56-73-26z" fill="#E85578"/>
      <path d="M463 420c-18 0-32 14-32 32v44h64v-44c0-18-14-32-32-32zm0 22c6 0 11 5 11 11v13h-22v-13c0-6 5-11 11-11z" fill="#FFF8F3" opacity="0.92"/>
    </g>

    <g opacity="0.92">
      <circle cx="743" cy="241" r="12" fill="#F3B95E"/>
      <path d="M744 198l11 26 28 9-27 11-11 27-11-27-27-11 27-9z" fill="#F3B95E"/>
      <circle cx="284" cy="738" r="10" fill="#7FB6A2"/>
      <path d="M286 699l9 22 23 8-23 9-9 23-10-23-22-9 22-8z" fill="#7FB6A2"/>
    </g>
  </g>
</svg>
