<svg xmlns="http://www.w3.org/2000/svg" width="920" height="240" viewBox="0 0 920 240" role="img" aria-labelledby="title desc">
  <title id="title">비밀기지 로고</title>
  <desc id="desc">하트 안에 숨겨진 작은 비밀기지 입구와 비밀기지 워드마크</desc>
  <defs>
    <linearGradient id="doorGradient" x1="201" y1="220" x2="311" y2="342" gradientUnits="userSpaceOnUse">
      <stop stop-color="#FF6F9F"/>
      <stop offset="1" stop-color="#FF9670"/>
    </linearGradient>
  </defs>

  <g transform="translate(18 20) scale(0.39)">
    <rect width="512" height="512" rx="128" fill="#FFFFFB"/>
    <path d="M256 394C241 382 130 319 130 226C130 176 168 142 216 142C235 142 250 151 256 168C262 151 277 142 296 142C344 142 382 176 382 226C382 319 271 382 256 394Z" fill="#FF6F9F"/>
    <path d="M196 342V278C196 242.4 223 214 256 214C289 214 316 242.4 316 278V342H196Z" fill="#FFFFFB"/>
    <path d="M204 342V279C204 247 227.3 222 256 222C284.7 222 308 247 308 279V342H204Z" fill="url(#doorGradient)"/>
    <path d="M220 342V280C220 259 236 242 256 242C276 242 292 259 292 280V342H220Z" fill="#1E1E2E"/>
    <circle cx="276" cy="292" r="6" fill="#FFFFFB"/>
    <path d="M190 342H322" fill="none" stroke="#FFFFFB" stroke-width="10" stroke-linecap="round"/>
  </g>

  <text x="274" y="111" fill="#1E1E2E" font-family="Pretendard, 'Noto Sans KR', sans-serif" font-size="62" font-weight="800" letter-spacing="-2">비밀기지</text>
  <text x="278" y="152" fill="#FF9670" font-family="Pretendard, 'Noto Sans KR', sans-serif" font-size="17" font-weight="800" letter-spacing="6">SECRET BASE</text>
</svg>
